<svg height="348" node-id="1" sillyvg="true" template-height="348" template-width="348" version="1.1" viewBox="0 0 348 348" width="348" xmlns="http://www.w3.org/2000/svg" xmlns:xlink="http://www.w3.org/1999/xlink"><defs node-id="104"><linearGradient gradientUnits="objectBoundingBox" id="linearGradient-1" node-id="5" spreadMethod="pad" x1="0.5" x2="0.5" y1="0" y2="0.9212986"><stop offset="0" stop-color="#ffe0e1"/><stop offset="1" stop-color="#ffffff" stop-opacity="0"/></linearGradient><linearGradient gradientUnits="objectBoundingBox" id="linearGradient-2" node-id="8" spreadMethod="pad" x1="0.07375813" x2="1.1209404" y1="0.6661769" y2="0.2246669"><stop offset="0.00018475507" stop-color="#fbb1b3"/><stop offset="1" stop-color="#fcdcdc"/></linearGradient><linearGradient gradientUnits="objectBoundingBox" id="linearGradient-3" node-id="11" spreadMethod="pad" x1="0" x2="1" y1="0.347139" y2="0.347139"><stop offset="0.00018475507" stop-color="#ffb2b5"/><stop offset="1" stop-color="#ffcccd"/></linearGradient><linearGradient gradientUnits="objectBoundingBox" id="linearGradient-4" node-id="14" spreadMethod="pad" x1="0.675653" x2="0.7303604" y1="0.45928964" y2="0.58228016"><stop offset="0" stop-color="#da3136" stop-opacity="0"/><stop offset="1" stop-color="#da3136" stop-opacity="0.5"/></linearGradient><linearGradient gradientUnits="objectBoundingBox" id="linearGradient-6" node-id="19" spreadMethod="pad" x1="0.6636377" x2="0.2617668" y1="0.27573723" y2="0.7788076"><stop offset="0.00018475507" stop-color="#ff9da0"/><stop offset="1" stop-color="#ffc8c9"/></linearGradient><linearGradient gradientUnits="objectBoundingBox" id="linearGradient-7" node-id="22" spreadMethod="pad" x1="0.362871" x2="0.591408" y1="0.61237276" y2="0.30759498"><stop offset="0" stop-color="#fba8ab"/><stop offset="1" stop-color="#ef6569"/></linearGradient><linearGradient gradientUnits="objectBoundingBox" id="linearGradient-9" node-id="27" spreadMethod="pad" x1="0.6844147" x2="0.3591307" y1="0" y2="0.9623452"><stop offset="0" stop-color="#ffa1a4"/><stop offset="1" stop-color="#ffeff0"/></linearGradient><linearGradient gradientUnits="objectBoundingBox" id="linearGradient-10" node-id="30" spreadMethod="pad" x1="0.5" x2="0.5" y1="0.9117192" y2="0.08164318"><stop offset="0.00018475507" stop-color="#ffc2c4"/><stop offset="1" stop-color="#ffefef"/></linearGradient><linearGradient gradientUnits="objectBoundingBox" id="linearGradient-11" node-id="33" spreadMethod="pad" x1="0.77330405" x2="0.5910516" y1="0.5886505" y2="0.17797689"><stop offset="0" stop-color="#fba8ab"/><stop offset="1" stop-color="#ef6569"/></linearGradient><linearGradient gradientUnits="objectBoundingBox" id="linearGradient-13" node-id="38" spreadMethod="pad" x1="0.45334902" x2="0.5701708" y1="0.5828417" y2="0.37903202"><stop offset="0.00018475507" stop-color="#fcafb2"/><stop offset="1" stop-color="#ffdadb"/></linearGradient><linearGradient gradientUnits="objectBoundingBox" id="linearGradient-14" node-id="41" spreadMethod="pad" x1="0.5" x2="0.5" y1="1" y2="0.0000000000000071054274"><stop offset="0.00018475507" stop-color="#ffc0c2"/><stop offset="1" stop-color="#ffefef"/></linearGradient><linearGradient gradientUnits="objectBoundingBox" id="linearGradient-15" node-id="44" spreadMethod="pad" x1="0.5" x2="0.5046956" y1="0.48158166" y2="0.5184184"><stop offset="0" stop-color="#ffe4e5"/><stop offset="1" stop-color="#fff0f1"/></linearGradient><linearGradient gradientUnits="objectBoundingBox" id="linearGradient-16" node-id="47" spreadMethod="pad" x1="0.24850988" x2="0.9654666" y1="0.55462337" y2="0.43584582"><stop offset="0.00018475507" stop-color="#ffc2c4"/><stop offset="1" stop-color="#ffe4e5"/></linearGradient><linearGradient gradientUnits="objectBoundingBox" id="linearGradient-17" node-id="50" spreadMethod="pad" x1="0.056816507" x2="0.26129997" y1="0.8369582" y2="0.65285057"><stop offset="0" stop-color="#ffa2a5"/><stop offset="0.9998152" stop-color="#ffc2c4"/></linearGradient><linearGradient gradientUnits="objectBoundingBox" id="linearGradient-18" node-id="53" spreadMethod="pad" x1="0.056816507" x2="0.97205216" y1="0.71699685" y2="0.2598353"><stop offset="0.00018475507" stop-color="#ffa9ab"/><stop offset="1" stop-color="#ffccce"/></linearGradient><linearGradient gradientUnits="objectBoundingBox" id="linearGradient-19" node-id="56" spreadMethod="pad" x1="0.9727794" x2="0.4546084" y1="0.048937112" y2="0.9519528"><stop offset="0.00018475507" stop-color="#ffc2c4"/><stop offset="1" stop-color="#ffdcdd"/></linearGradient><filter filterUnits="objectBoundingBox" height="49.019997" id="filter-5" node-id="17" width="112.04199" x="44.032" y="119.49"><feGaussianBlur color-interpolation-filters="linearRGB" in="SourceGraphic" result="result1" stdDeviation="1 1"></feGaussianBlur></filter><filter filterUnits="objectBoundingBox" height="49.39335" id="filter-8" node-id="25" width="83.006004" x="97.997" y="85.00515"><feGaussianBlur color-interpolation-filters="linearRGB" in="SourceGraphic" result="result1" stdDeviation="1 1"></feGaussianBlur></filter><filter filterUnits="objectBoundingBox" height="53.96707" id="filter-12" node-id="36" width="75.003006" x="175.033" y="84.977844"><feGaussianBlur color-interpolation-filters="linearRGB" in="SourceGraphic" result="result1" stdDeviation="1 1"></feGaussianBlur></filter><filter filterUnits="objectBoundingBox" height="10.496211" id="filter-20" node-id="59" width="15.811329" x="-0.3223197" y="11.131616"><feGaussianBlur color-interpolation-filters="linearRGB" in="SourceGraphic" result="result1" stdDeviation="0 0"></feGaussianBlur></filter><filter filterUnits="objectBoundingBox" height="12.113638" id="filter-21" node-id="61" width="18.347746" x="21.106241" y="25.245"><feGaussianBlur color-interpolation-filters="linearRGB" in="SourceGraphic" result="result1" stdDeviation="0 0"></feGaussianBlur></filter></defs><g node-id="221"><g node-id="222"><g node-id="223"><path d="M 0.00 0.00 L 348.00 0.00 L 348.00 348.00 L 0.00 348.00 Z" fill="#ffffff" fill-opacity="0" fill-rule="evenodd" group-id="1,2,3" id="矩形备份-20" node-id="68" stroke="none" target-height="348" target-width="348" target-x="0" target-y="0"/></g><g node-id="224"><g node-id="225"><path d="M 348.00 292.00 L 347.70 287.30 L 347.00 282.70 L 345.80 278.20 L 344.00 273.70 L 341.80 269.30 L 338.50 264.10 L 334.50 258.90 L 329.80 253.90 L 324.20 248.80 L 318.50 244.30 L 312.00 239.90 L 304.90 235.70 L 297.00 231.50 L 289.10 227.90 L 280.60 224.40 L 271.50 221.20 L 261.80 218.20 L 242.00 213.30 L 220.30 209.60 L 209.20 208.20 L 186.10 206.70 L 174.00 206.50 L 161.90 206.70 L 138.80 208.20 L 127.70 209.60 L 106.00 213.30 L 86.20 218.20 L 76.50 221.20 L 67.40 224.40 L 58.90 227.90 L 51.00 231.50 L 43.10 235.70 L 36.00 239.90 L 29.50 244.30 L 23.80 248.80 L 18.20 253.90 L 13.50 258.90 L 9.50 264.10 L 6.20 269.30 L 4.00 273.70 L 2.20 278.20 L 1.00 282.70 L 0.30 287.30 L 0.00 292.00 L 0.30 294.20 L 1.00 296.30 L 2.30 298.50 L 4.20 300.60 L 6.80 302.80 L 14.40 307.20 L 19.60 309.50 L 25.80 311.70 L 34.00 314.10 L 43.40 316.40 L 54.40 318.60 L 77.30 322.00 L 90.20 323.50 L 109.90 325.20 L 130.90 326.40 L 152.20 327.20 L 174.00 327.40 L 195.80 327.20 L 217.10 326.40 L 238.10 325.20 L 257.80 323.50 L 270.70 322.00 L 293.60 318.60 L 304.60 316.40 L 314.00 314.10 L 322.20 311.70 L 328.40 309.50 L 333.60 307.20 L 337.80 305.00 L 341.20 302.80 L 343.80 300.60 L 345.70 298.50 L 347.00 296.30 L 347.70 294.20 L 348.00 292.00 Z" fill="url(#linearGradient-1)" fill-rule="evenodd" group-id="1,2,4,5" id="椭圆形备份" node-id="71" stroke="none" target-height="120.899994" target-width="348" target-x="0" target-y="206.5"/><g node-id="226"><g node-id="232"><path d="M 43.50 241.60 L 43.50 260.40" fill="none" group-id="1,2,4,5,6,12" hidden="true" id="直线" node-id="74" stroke="#fcaeb0" stroke-linecap="round" stroke-opacity="0.8" stroke-width="4" target-height="18.799988" target-width="0" target-x="43.5" target-y="241.6" visibility="hidden"/><path d="M 43.00 204.00 L 37.50 210.10 L 33.60 215.30 L 30.90 219.60 L 29.20 223.30 L 28.30 226.40 L 28.00 229.00 L 28.30 231.20 L 29.00 233.50 L 31.10 236.90 L 33.20 238.80 L 37.50 241.10 L 42.30 242.00 L 44.80 241.90 L 48.80 241.30 L 53.10 239.40 L 55.00 237.90 L 56.60 235.80 L 57.30 234.20 L 58.00 229.70 L 57.70 226.50 L 57.00 223.20 L 55.60 219.70 L 53.60 216.10 L 51.00 212.30 L 47.40 208.30 L 43.00 204.00 Z" fill="#ffd2d4" fill-opacity="0.8" fill-rule="nonzero" group-id="1,2,4,5,6,12" hidden="true" id="路径-15" node-id="75" stroke="none" target-height="38" target-width="30" target-x="28" target-y="204" visibility="hidden"/></g><g node-id="233"><path d="M 293.50 237.40 L 293.50 250.60" fill="none" group-id="1,2,4,5,6,13" hidden="true" id="直线" node-id="77" stroke="#fcaeb0" stroke-linecap="round" stroke-opacity="0.8" stroke-width="3" target-height="13.200012" target-width="0" target-x="293.5" target-y="237.4" visibility="hidden"/><path d="M 293.50 211.00 L 289.10 216.00 L 286.20 220.10 L 284.30 223.40 L 283.30 226.20 L 283.00 228.50 L 283.20 230.40 L 284.00 232.40 L 286.10 235.30 L 288.20 236.70 L 292.00 237.90 L 297.10 237.60 L 299.10 237.00 L 300.90 235.90 L 302.50 234.40 L 303.80 231.40 L 304.00 229.30 L 303.80 226.60 L 303.00 223.80 L 301.70 220.90 L 299.80 217.80 L 297.10 214.50 L 293.50 211.00 Z" fill="#ffd9db" fill-opacity="0.8" fill-rule="nonzero" group-id="1,2,4,5,6,13" hidden="true" id="路径-15" node-id="78" stroke="none" target-height="26.899994" target-width="21" target-x="283" target-y="211" visibility="hidden"/></g><g node-id="234"><path d="M 325.50 255.30 L 325.50 265.70" fill="none" group-id="1,2,4,5,6,14" hidden="true" id="直线" node-id="80" stroke="#fcaeb0" stroke-linecap="round" stroke-opacity="0.8" stroke-width="3" target-height="10.400009" target-width="0" target-x="325.5" target-y="255.3" visibility="hidden"/><path d="M 326.00 236.00 L 322.10 240.40 L 319.80 243.80 L 318.50 246.50 L 318.00 248.60 L 318.20 250.30 L 318.70 251.90 L 320.40 254.00 L 321.90 255.00 L 324.80 255.90 L 328.80 255.70 L 331.70 254.50 L 332.90 253.30 L 333.80 251.10 L 334.00 249.50 L 333.70 247.10 L 332.90 244.60 L 331.40 242.00 L 329.20 239.10 L 326.00 236.00 Z" fill="#ffd9db" fill-opacity="0.8" fill-rule="nonzero" group-id="1,2,4,5,6,14" hidden="true" id="路径-15" node-id="81" stroke="none" target-height="19.899994" target-width="16" target-x="318" target-y="236" visibility="hidden"/></g></g><path d="M 100.00 155.00 L 167.00 143.00 L 167.00 211.00 L 100.00 211.00 Z" fill="url(#linearGradient-2)" fill-rule="nonzero" group-id="1,2,4,5" id="矩形" node-id="82" stroke="none" target-height="68" target-width="67" target-x="100" target-y="143"/><path d="M 167.00 143.00 L 248.00 154.00 L 248.00 216.00 L 167.00 216.00 Z" fill="url(#linearGradient-3)" fill-rule="nonzero" group-id="1,2,4,5" id="矩形" node-id="83" stroke="none" target-height="73" target-width="81" target-x="167" target-y="143"/><g node-id="227"><path d="M 47.00 206.00 L 99.80 206.00 L 153.00 249.00 L 100.80 247.00 Z" fill="url(#linearGradient-4)" fill-rule="evenodd" filter="url(#filter-5)" group-id="1,2,4,5,7" id="矩形" node-id="84" stroke="none" target-height="43" target-width="106" target-x="47" target-y="206"/></g><path d="M 100.00 155.00 L 178.00 171.30 L 178.00 268.00 L 100.00 247.10 Z" fill="url(#linearGradient-6)" fill-rule="nonzero" group-id="1,2,4,5" id="矩形" node-id="85" stroke="none" target-height="113" target-width="78" target-x="100" target-y="155"/><g node-id="228"><path d="M 101.00 171.50 L 178.00 171.50 L 170.30 214.90 L 101.00 197.00 Z" fill="url(#linearGradient-7)" fill-rule="evenodd" filter="url(#filter-8)" group-id="1,2,4,5,8" id="矩形" node-id="86" stroke="none" target-height="43.399994" target-width="77" target-x="101" target-y="171.5"/></g><path d="M 203.10 121.00 L 195.10 126.60 L 188.90 131.50 L 184.40 135.70 L 181.10 139.40 L 179.00 142.60 L 177.70 145.50 L 177.10 147.90 L 177.00 150.20 L 177.60 152.90 L 178.40 154.80 L 179.50 156.10 L 182.10 157.60 L 183.60 157.70 L 185.80 157.40 L 187.70 156.50 L 189.30 155.30 L 190.10 154.00 L 190.30 152.60 L 189.90 150.10 L 189.20 149.00 L 188.20 148.20 L 187.00 147.70 L 185.60 147.60 L 183.80 147.90 L 181.50 149.00 L 179.90 150.20 L 176.40 154.10 L 171.90 161.90 L 168.30 170.20 L 166.10 177.00" fill="none" group-id="1,2,4,5" id="路径-19" node-id="87" stroke="url(#linearGradient-9)" stroke-dasharray="4 3" stroke-linecap="butt" stroke-width="2" target-height="56" target-width="37" target-x="166.1" target-y="121"/><path d="M 178.00 171.40 L 248.00 154.00 L 248.00 244.90 L 178.00 268.00 Z" fill="url(#linearGradient-10)" fill-rule="nonzero" group-id="1,2,4,5" id="矩形" node-id="88" stroke="none" target-height="114" target-width="70" target-x="178" target-y="154"/><g node-id="229"><path d="M 178.00 171.50 L 247.00 171.50 L 247.00 196.30 L 184.40 219.50 Z" fill="url(#linearGradient-11)" fill-rule="evenodd" filter="url(#filter-12)" group-id="1,2,4,5,9" id="矩形" node-id="89" stroke="none" target-height="48" target-width="69" target-x="178" target-y="171.5"/></g><path d="M 100.00 155.00 L 178.00 171.40 L 162.50 207.00 L 84.00 186.80 Z" fill="url(#linearGradient-13)" fill-rule="nonzero" group-id="1,2,4,5" id="矩形" node-id="90" stroke="none" target-height="52" target-width="94" target-x="84" target-y="155"/><path d="M 178.00 171.40 L 248.00 154.00 L 263.00 185.40 L 196.20 207.00 Z" fill="url(#linearGradient-14)" fill-rule="nonzero" group-id="1,2,4,5" id="矩形" node-id="91" stroke="none" target-height="53" target-width="85" target-x="178" target-y="154"/><path d="M 178.00 171.40 L 196.20 207.00 L 263.00 185.40" fill="none" group-id="1,2,4,5" id="路径-2" node-id="92" stroke="#ffdfe0" stroke-linecap="butt" stroke-width="1" target-height="35.600006" target-width="85" target-x="178" target-y="171.4"/><g node-id="230"><path d="M 178.00 171.40 L 162.50 207.00 L 84.00 186.80" fill="none" group-id="1,2,4,5,10" id="路径-12" node-id="93" stroke="#ffeced" stroke-linecap="butt" stroke-opacity="0.60358536" stroke-width="1" target-height="35.600006" target-width="94" target-x="84" target-y="171.4"/></g><path d="M 178.00 171.40 L 248.00 154.00 L 167.00 143.00 L 100.00 155.00 Z" fill="none" group-id="1,2,4,5" id="路径-13" node-id="94" stroke="url(#linearGradient-15)" stroke-linecap="butt" stroke-width="1" target-height="28.399994" target-width="148" target-x="100" target-y="143"/><g node-id="231"><path d="M 252.00 84.00 L 193.00 95.20 L 208.00 105.10 Z" fill="url(#linearGradient-16)" fill-rule="nonzero" group-id="1,2,4,5,11" id="路径-16备份" node-id="96" stroke="none" target-height="21.099998" target-width="59" target-x="193" target-y="84"/><path d="M 252.00 84.00 L 208.00 105.10 L 208.00 122.00 Z" fill="url(#linearGradient-17)" fill-rule="nonzero" group-id="1,2,4,5,11" id="路径-16备份-2" node-id="97" stroke="none" target-height="38" target-width="44" target-x="208" target-y="84"/><path d="M 252.00 84.00 L 208.00 105.10 L 216.70 114.50 Z" fill="url(#linearGradient-18)" fill-rule="nonzero" group-id="1,2,4,5,11" id="路径-16备份-2" node-id="98" stroke="none" target-height="30.5" target-width="44" target-x="208" target-y="84"/><path d="M 252.00 84.00 L 214.30 109.40 L 232.40 121.00 Z" fill="url(#linearGradient-19)" fill-rule="nonzero" group-id="1,2,4,5,11" id="路径-16备份" node-id="99" stroke="none" target-height="37" target-width="37.699997" target-x="214.3" target-y="84"/><g node-id="235"><path d="M 208.00 105.10 L 193.20 95.60" fill="none" filter="url(#filter-20)" group-id="1,2,4,5,11,15" id="路径-16" node-id="100" stroke="#ffe2e2" stroke-linecap="round" stroke-width="1" target-height="9.5" target-width="14.800003" target-x="193.2" target-y="95.6"/></g><path d="M 214.60 109.70 L 232.00 120.90" fill="none" filter="url(#filter-21)" group-id="1,2,4,5,11,16" id="路径-17" node-id="101" stroke="#ffecec" stroke-linecap="round" stroke-width="1" target-height="11.200005" target-width="17.399994" target-x="214.6" target-y="109.7"/></g></g></g></g></g></svg>